<?xml version="1.0" standalone="no"?>
<!DOCTYPE svg PUBLIC "-//W3C//DTD SVG 20010904//EN"
 "http://www.w3.org/TR/2001/REC-SVG-20010904/DTD/svg10.dtd">
<svg version="1.0" xmlns="http://www.w3.org/2000/svg"
 width="521.000000pt" height="521.000000pt" viewBox="0 0 521.000000 521.000000"
 preserveAspectRatio="xMidYMid meet">
<metadata>
Created by potrace 1.11, written by Peter Selinger 2001-2013
</metadata>
<g transform="translate(0.000000,521.000000) scale(0.100000,-0.100000)"
fill="#000000" stroke="none">
<path d="M2449 5106 c-2 -2 -43 -6 -91 -10 -48 -4 -93 -8 -100 -11 -7 -2 -31
-6 -53 -9 -68 -9 -116 -20 -315 -71 -8 -2 -53 -17 -100 -33 -562 -196 -1039
-588 -1345 -1107 -53 -90 -131 -250 -164 -340 -13 -33 -27 -69 -31 -80 -24
-56 -84 -269 -95 -335 -3 -19 -10 -60 -16 -91 -5 -31 -11 -74 -13 -95 -3 -22
-8 -68 -12 -103 -9 -88 -9 -350 1 -441 4 -41 9 -86 10 -100 14 -134 84 -409
142 -560 43 -112 111 -258 156 -335 17 -27 39 -66 50 -85 34 -60 142 -212 212
-295 250 -301 590 -555 929 -696 55 -23 115 -47 131 -54 74 -32 248 -80 375
-105 30 -5 66 -12 80 -15 101 -20 237 -26 467 -22 142 2 268 7 280 10 11 3 43
9 70 12 203 29 518 131 718 233 63 32 285 164 310 184 6 4 44 34 85 65 101 78
138 110 255 228 125 125 146 150 233 266 179 243 317 519 397 796 14 50 28
100 30 112 2 13 6 30 9 39 3 9 8 33 11 52 3 19 8 42 10 50 2 8 7 35 10 60 3
25 10 77 15 115 10 79 7 534 -4 580 -4 17 -9 44 -11 60 -8 76 -57 299 -81 365
-3 8 -5 16 -5 17 0 2 -15 45 -33 95 -59 162 -98 244 -193 411 -40 71 -82 138
-93 150 -11 11 -20 24 -20 28 0 21 -178 229 -294 344 -285 283 -618 485 -1003
609 -78 25 -188 53 -243 62 -14 2 -36 7 -50 11 -31 8 -41 9 -114 18 -33 4 -69
9 -80 12 -24 5 -422 14 -427 9z"/>
</g>
</svg>
